<?xml version="1.0" encoding="UTF-8"?>
<svg xmlns="http://www.w3.org/2000/svg" viewBox="0 0 916.6 201.2">
    <defs>
        <style>
            .e{fill:#7a2d9e;}.f{fill:#f272ec;}.g{fill:none;}.h{clip-path:url(#d);}.i{fill:#bf57c4;}.j{fill:#f9f9e4;}
        </style>
        <clipPath id="d">
            <path class="g"
                  d="M846.7,141.6c-28.9-4.7-40.3-26.8-37.1-46.1,2.9-18.2,18.9-35.3,48-30.6,31.6,5.1,28.5,33.5,27.8,37.7-.9,5.9-4.1,10.3-12.1,11.6-6.3,1.1-16,1-22.6.1-2-.3-2.5-1.3-2.8-2.9-.9-4.5-1.9-13.1-1.9-13.6.2-1.4,1.3-1.9,3.1-2,6.9-.5,7.8-.6,8.1-2.4s-1.6-5.6-6.9-6.5-12.1,3.5-13.4,11.4c-1.5,9,3.5,20.3,19.4,22.9.9.1,1.9.3,2.8.3h.3c1.8.3,3.8,1.8,3.4,4s-4.9,9.4-7.5,13.4c-1.3,1.9-3.3,3.4-7,2.8l-1.5-.2ZM795.4,52.1c0,3,3.2,10.8-.7,31,0,0-5.6,29.2-3.9,30.1,0,0,0,0,0,0,0,0-.3,18,5.8,21.1,1.4.7,2.8,1.4,2.7,2.6,0,.4,0,.8-.3,1.1l-7.8,15.8c-1.2,2.4-2.5,3.6-4.4,3.5,0,0-11-1.7-17.9-9.3-7.4,3.6-15,5.1-22.1,4.7-21.5-1.1-39.1-18.5-38.1-39.3.8-15.7,12.8-37.2,38.4-36,5.5.3,11,1.7,15.6,3.6.9-10.2,1.6-17.4,2.2-22.4.2-1.3.5-4.1.5-7.9,0-3.4-.4-6.2-.6-8-1.8,2.1-4.1,4.1-6.9,5.7-13.6,7.9-29.5,1.4-32.2.2,4.7-9.5,13.7-15.6,23.3-15.7,8.2,0,14.1,4.2,16.1,5.9.9-.6,3.7-2.2,7.6-1.9,3.1.3,5.3,1.7,6.2,2.3.6-.4,4.2-2.9,7.7-3.6.8-.2,2-.4,3.5-.2.7.1,1.3.3,2.1.5,1.9-2.8,6.2-7.9,11.9-8.3,8.8-.6,19.5,10,21.4,27.3-4.2,0-12.6-.7-21.4-5.9-5.6-3.3-9.3-7.2-11.6-10,.4,3,2.9,7.5,3,13.1ZM760.3,106.5c-1.3-2.6-4.8-4.6-8.7-4.8-7.7-.4-13,6.5-13.3,13.7s4.4,13.7,12.6,14.1,6.1-.5,9.8-2c-.6-5.8-.8-12.7-.4-21ZM681.8,128.4c-1.7,1.8-3.2,2.6-4.8,2.2s-9.5-4.6-14.2-12.1c-7.4,1.7-14.5,1.4-20.9-.3-20.9-5.5-34.6-26.2-29.4-46.3,3.9-15,20.2-33.8,44.9-27.3,6.2,1.6,12,4.6,16.3,8,1-.7,2.2-.8,3.7-.4l.6.2,21.1,7.5c3.2,1.1,3.6,3,3.2,4.5l-.2.6c-4.7,10.9-9.3,21.3-11.5,29.5-2,7.5-2,13.2,1.4,16.4,1.1,1,2.3,2.1,1.9,3.3s-.3.6-.7,1l-11.7,13.1ZM661.5,85.8c.9-3.2,1.9-6.6,3.1-10.3-.8-2.9-3.8-5.5-7.4-6.5-7.9-2.1-14.2,4.4-15.9,10.8s1.5,14.3,9.6,16.4,5.3.8,8.4.4c.5-3.3,1.1-6.9,2.2-10.8ZM598.7,102.3c.9,7.2,3.3,12.7,9.2,16.9.9.5,2.3,1.7,2.5,3.1s-.2,1.6-1,2.3c0,.3-11.5,11-11.5,11-1.1,1.2-2.4,1.7-3.5,1.9-2.3.3-23.7-3.8-26.6-26.6l-.6-4.4c-1.7-13.4-9-18.2-18.4-17.5l3.6,46.8c.2,1.3-.8,2.6-2.1,2.7h-.3s-25.8,2.1-25.8,2.1c-1.6,0-2.7-.9-2.9-2.5l-5.1-67c0-1.4.9-2.7,2.2-2.9h.3s14.4-1.1,14.4-1.1c4.9-1.7,9.5-2.8,14.1-3.4,26-3.4,47.8,10,50.9,34.4l.5,4.2ZM483.3,131.4c-28.8,5.4-47-11.5-50.6-30.8-.6-3.1-2.8-16.4,4.2-25.7,2.5-3.3,5.6-6,4.9-9.2-.9-3.7-6.1-3.8-6.6-6.8-.7-4.6,10.9-12.1,15.5-9.2,3.1,1.9.9,7.3,4.4,9.4,3.5,2.2,10.6-.5,11.7-4.3.9-3.1-2.7-5-1.8-7.6,1.5-4.4,14.5-5.8,17.2-1.5,1.5,2.4-1,5,.7,8.3,1.4,2.8,4.8,4,7.8,4.5,0,0,12.4,6.7,15.5,22.6,0,.3,0,.4.1.5,1.1,5.8-.4,11.1-7.4,15.1-.5.3-1.9,1-3.1,1.5-1.7.8-2.9,1.3-3.5,1.6,0,0-7.2,3.1-14.7,4.7-.4,0-1.3.3-2.1-.2-.6-.3-1.1-.9-1.5-1.7-2.3-3.9-6.3-11.7-6.4-12.2-.3-1.4.6-2.2,2.2-2.9,6.3-2.8,7.1-3.2,6.8-5-.2-1.1-3.4-4.7-8.7-3.7-6.1,1.1-10.2,7.4-8.7,15.3,1.7,9,10.2,17.9,26.1,14.9.9-.2,1.9-.4,2.8-.7h.3c1.8-.4,4.1.4,4.6,2.5.2,1.3-1.4,10.5-2.5,15.2-.2.8-.6,2-1.7,3.1-1.8,1.8-4.2,2.1-5.5,2.2ZM346,116.1h-.3c-1.3-.3-2-1.7-1.8-3.1l4.8-26.8c2.3-12.9.8-18.7-7-21.2l-8.1,46.2c-.3,1.5-1.6,2.4-3,2.2l-23.8-4.2h-.3c-1.3-.3-2-1.7-1.8-3.1l11.7-66.2v-.3c.4-1.4,1.6-2.2,2.9-2l7.6,1.3c6.9-.7,13.4-.3,19.5,1.1s10.8,3.4,15.2,6.4c8.7-1.2,16.7-.8,23.8.8,22.2,5,35.2,22.7,31.4,45.9-1.4,8.3-1.4,14.8,3.5,20.8.6.8,1.8,2.4,1.5,3.8s-.6,1.3-1.5,1.8c0,.3-13.1,8-13.1,8-1.7.9-2.9,1.2-4.2.9s-20.6-8.8-16.5-33.9c2.5-13.7,1-19.4-6-22l-7.9,45.5c-.3,1.5-1.6,2.4-3,2.2l-23.7-4.1ZM250.8,121.7c-1.6.1-1.2,4.6-4,9-2.7,4.2-7.8,7.6-13,8-9.9.8-19.7-8.9-19-16,.6-6.2,9.5-13,12-15,1.7-1.3,4.4-3.1,4-4-.3-.8-3.1-.2-5,0-6.1.7-14-2.1-17-8-3.2-6.2,1.3-15.5,8-19,4.7-2.5,10.8-2.2,15,0,3.3,1.7,5.3,4.5,6,4,.7-.5-1.1-3.5-2-7-1.3-4.6-1.6-12.2,2-17,5.6-7.4,20.6-7.5,26-1,4.9,5.9,2.3,17.9,2,19-.6,2.5-1.7,5.7-1,6,.6.3,1.9-2.2,4-4,4-3.3,11.3-4.3,17-1,6.7,3.8,9.8,12.6,7,19-2.7,6.2-10.5,9.5-16,9-1.9-.2-4.6-.9-5,0-.4.8,1.3,2.3,2,3,3.4,3.3,10,9.4,11,14,1.3,5.8-4.9,14.6-13,16-8.1,1.4-14.5-5.4-15-6-3.9-4.3-4.3-9.1-6-9ZM265.8,100.4c0-2.5-.5-15-13.7-15s-13.9,9.2-13.9,15c0,8.9,7,14.8,14.3,14.8s13.3-7.5,13.3-14.8ZM158.1,119.7c-1.7,0-3.2-1.2-3.2-2.9l-4.2-75.3c0-1.7,1.3-3.2,2.9-3.2l16.8-.9c7.8-2.5,15.3-3.7,22.6-3.7,4.9,0,9.7.6,14.2,1.6,2.2.6,3,1.7,3.1,3.5,0,.6-.1,1.2-.3,1.9l-4.1,20.4c-.4,2-1.9,3-3.6,3.1-.4,0-1-.1-1.6-.3-2.3-.7-4.8-1.1-7.2-1.1-2,0-4.1.3-6.4.9l2.9,51.3v.3c0,1.6-1.3,2.9-2.9,2.9l-28.8,1.7ZM54.4,150.8l-31.9-4.3c-1.8-.3-2.9-1.8-2.8-3.6L36,22.5c.1-1.5,1.6-2.8,3.3-2.6h.3s27.8,3.7,27.8,3.7c6.3-1.5,12.5-2,18.4-1.6,28.3,2.3,52,25.4,49.6,54.9-2.3,28.3-23.2,46.4-55,43.7-6.4-.5-12.6-2-18.3-4.1l-4.1,31.5c-.3,1.7-1.8,2.9-3.3,2.8h-.3ZM66.2,86.2c3.2,1.8,7.4,3.2,11.5,3.6,16.8,1.4,18.2-15,18.2-16,.9-10.7-7-18.9-18.4-19.8s-4.6,0-7.1.3l-4.3,31.9Z"/>
        </clipPath>
    </defs>
    <g id="a">
        <path class="e"
              d="M913,101.1c-7-21.1-30-33.2-52.8-33.1-2.6,0-5.3.5-6.4-2.4-6.6-21.3-23.2-37.1-44.1-33.6-8,.7-13.8,8.1-21.6,8.9-4.1-.2-8.6.3-12.6-1.1-21.3-8.4-45.5,1.6-56.4,22.2-1.3,2.2-1.9,3.3-3.7,2.5-36.1-12.6-69-33-100,3.5-3.3,2.2-6.5,14.4-10.5,10.9-16.8-12.5-41.5-14.8-62-8.8-5.4,1.8-12.7,1.2-17.9,2.2-4.8,1.2-9.1-5.2-12.4-6.8-3.2-4.8-5.4-11.2-10.8-14.3-9-6.2-21.7-6.3-31.4-1.4-2.6,1.2-4.6,3.6-7.7,3.2-11.2-1.6-23.2,4.5-29.9,12-1.2,1.5-2.7,1.8-4.1.4-16.5-15-34.7-14.5-55.1-17.2-14.1-6.6-30.2-5.5-45.3-6.8-19.7.7-22.1,21.9-24.3,37-.2,1.4-.4,1.9-1.4,1.7-8.6-.8-8.4-8.7-13.4-14-10.6-12.6-31.9-14.6-46.1-6.9-1.8,1-2.6.3-3-1.8-7.8-27.7-43.3-20.3-65-16.2-9,.6-19-.2-26,6.3-1.4,1.4-3.3.5-4.5-.9-20.4-21.1-47.1-21.7-74.4-20.6-19.5-3.8-39.6-5.1-43.7,17.9-.9,13.9-19.1,119.8-15.1,130.5,6.1,20.5,37.4,16.5,52.2,20,16.2,1.5,25.7-13.4,25.8-28.1.4-2.1,1.7-2,3.6-1.9,19.9,1.3,38.7-5.8,52.2-17.3.6-.1,1,.2,1.4.9,4.1,11.2,15.9,16.9,27.4,15.1,11.3-.6,22.9-1.2,33.8-2.8,7.5,12,20.1,22.3,35,22.2,9.8,1.4,18-7.6,23.9-4.6,19,8.6,41.9-3.7,47.6-23.5.7-3.4,23.3,3.5,25.5,2.8,7.3-.4,13.3,3.2,20.5,3.7,11.8,1.5,18.1,5,28.1,1.7,2.2-1,4.3-.3,6.1,1.3,27,21.8,37.6-4.9,49-1.6,17.3,14.5,46.9,19.5,67.1,7.3,1.1-.8,2-.9,2.8.3,7.8,18.9,26.9,14.1,44.7,12.7,16.2.6,19-12.4,24.3-8.4,15.5,9.3,30.8,10.2,42.6-2.8,4.1-2.5,11.7-14.5,15.6-12.3,6.8,2.6,14.1,4.1,21.4,4.2,2.3,0,4.5,1,6.2,2.5,11.5,9,22.8,12.5,35.2,3.2,1.1-.7,2.4-1.8,3.5-1.2,14.3,21.5,40.3,33.2,65.9,27.3,6.1-.9,16.3,5.8,20.2,5.5,27.7,4.9,28.7-30.4,35-24.9,11.1,6.4,31,14.2,44.6,7,10.1-5,13.8-16.6,19.8-25.7,22.9-8.8,28.8-32.3,20.5-56.1Z"/>
    </g>
    <g id="b">
        <path class="j"
              d="M901.9,77.1c-7-21.1-30-33.2-52.8-33.1-2.6,0-5.3.5-6.4-2.4-6.6-21.3-23.2-37.1-44.1-33.6-8,.7-13.8,8.1-21.6,8.9-4.1-.2-8.6.3-12.6-1.1-21.3-8.4-45.5,1.6-56.4,22.2-1.3,2.2-1.9,3.3-3.7,2.5-36.1-12.6-69-33-100,3.5-3.3,2.2-6.5,14.4-10.5,10.9-16.8-12.5-41.5-14.8-62-8.8-5.4,1.8-12.7,1.2-17.9,2.2-4.8,1.2-9.1-5.2-12.4-6.8-3.2-4.8-5.4-11.2-10.8-14.3-9-6.2-21.7-6.3-31.4-1.4-2.6,1.2-4.6,3.6-7.7,3.2-11.2-1.6-23.2,4.5-29.9,12-1.2,1.5-2.7,1.8-4.1.4-16.5-15-34.7-14.5-55.1-17.2-14.1-6.6-30.2-5.5-45.3-6.8-19.7.7-22.1,21.9-24.3,37-.2,1.4-.4,1.9-1.4,1.7-8.6-.8-8.4-8.7-13.4-14-10.6-12.6-31.9-14.6-46.1-6.9-1.8,1-2.6.3-3-1.8-7.8-27.7-43.3-20.3-65-16.2-9,.6-19-.2-26,6.3-1.4,1.4-3.3.5-4.5-.9C113.3,1.7,86.6,1.1,59.3,2.1,39.9-1.6,19.7-2.9,15.7,20c-.9,13.9-19.1,119.8-15.1,130.5,6.1,20.5,37.4,16.5,52.2,20,16.2,1.5,25.7-13.4,25.8-28.1.4-2.1,1.7-2,3.6-1.9,19.9,1.3,38.7-5.8,52.2-17.3.6-.1,1,.2,1.4.9,4.1,11.2,15.9,16.9,27.4,15.1,11.3-.6,22.9-1.2,33.8-2.8,7.5,12,20.1,22.3,35,22.2,9.8,1.4,18-7.6,23.9-4.6,19,8.6,41.9-3.7,47.6-23.5.7-3.4,23.3,3.5,25.5,2.8,7.3-.4,13.3,3.2,20.5,3.7,11.8,1.5,18.1,5,28.1,1.7,2.2-1,4.3-.3,6.1,1.3,27,21.8,37.6-4.9,49-1.6,17.3,14.5,46.9,19.5,67.1,7.3,1.1-.8,2-.9,2.8.3,7.8,18.9,26.9,14.1,44.7,12.7,16.2.6,19-12.4,24.3-8.4,15.5,9.3,30.8,10.2,42.6-2.8,4.1-2.5,11.7-14.5,15.6-12.3,6.8,2.6,14.1,4.1,21.4,4.2,2.3,0,4.5,1,6.2,2.5,11.5,9,22.8,12.5,35.2,3.2,1.1-.7,2.4-1.8,3.5-1.2,14.3,21.5,40.3,33.2,65.9,27.3,6.1-.9,16.3,5.8,20.2,5.5,27.7,4.9,28.7-30.4,35-24.9,11.1,6.4,31,14.2,44.6,7,10.1-5,13.8-16.6,19.8-25.7,22.9-8.8,28.8-32.3,20.5-56.1Z"/>
    </g>
    <g id="c">
        <g class="h">
            <polyline class="f" points="885.8 18.7 885.8 150.7 19.8 150.7 19.8 18.7"/>
            <path class="i"
                  d="M26.8,91.7c15.8-7.2,34.5,25,63,18,16.8-4.1,18-15.3,39-20,5-1.1,28.2-6.3,45,6,15.8,11.5,11.1,27.6,25,34,16,7.4,36.9-7.2,38-8,25.3-18.2,15.1-46.5,34-56,14.6-7.4,35,2.4,70,19,21,10,25.4,15.3,39,16,20.6,1,26-10.4,43-7,12.4,2.5,11.3,8.9,37,24,16.6,9.8,25.1,14.6,35,13,11.6-1.9,12-9.9,27-16,15.5-6.3,20.3.2,35-4,25.1-7.1,25.1-29.8,42-31,18.8-1.3,23,26.5,48,29,18.9,1.9,25.4-13,43-8,13.9,3.9,13.8,14.4,29,18,14.2,3.4,16.9-5.1,33-3,19.3,2.5,24,15.7,38,13,8.9-1.7,9.7-7.6,18-11,20.3-8.2,55.9,13.8,55,25-1.6,19.8-118.1,18.5-414,31-279.9,11.8-415.2,23.2-434-28-6.4-17.3-1.5-47.9,12-54Z"/>
        </g>
    </g>
</svg>